<svg width="32" height="20" viewBox="0 0 32 20" fill="none" xmlns="http://www.w3.org/2000/svg">
<g clip-path="url(#clip0_1335_10007)">
<path d="M29.1343 0H2.86575C2.75634 0 2.64674 0 2.53754 0.000622847C2.44522 0.00126457 2.35312 0.0022649 2.26101 0.00471853C2.06015 0.0100222 1.85756 0.021592 1.6592 0.0563959C1.45768 0.0918038 1.27015 0.149559 1.0872 0.240494C0.907346 0.329788 0.742688 0.446581 0.599993 0.585948C0.457237 0.725314 0.337606 0.885801 0.246161 1.06158C0.152996 1.24018 0.0937985 1.42332 0.0577814 1.62021C0.0219401 1.81392 0.0100098 2.01166 0.00459659 2.20756C0.00212198 2.29747 0.0010606 2.38739 0.000459349 2.47729C-0.000178636 2.58413 3.40259e-05 2.6909 3.40259e-05 2.79794V17.2023C3.40259e-05 17.3093 -0.000178636 17.4159 0.000459349 17.5229C0.0010606 17.6128 0.00212198 17.7028 0.00459659 17.7927C0.0100098 17.9884 0.0219401 18.1861 0.0577814 18.3798C0.0937985 18.5768 0.152996 18.7598 0.246161 18.9384C0.337606 19.1142 0.457237 19.2749 0.599993 19.4141C0.742688 19.5537 0.907346 19.6704 1.0872 19.7595C1.27015 19.8507 1.45768 19.9085 1.6592 19.9438C1.85756 19.9784 2.06015 19.9902 2.26101 19.9955C2.35312 19.9975 2.44522 19.9988 2.53754 19.9992C2.64674 20 2.75634 20 2.86575 20H29.1343C29.2435 20 29.3531 20 29.4623 19.9992C29.5544 19.9988 29.6465 19.9975 29.739 19.9955C29.9395 19.9902 30.142 19.9784 30.3409 19.9438C30.5421 19.9085 30.7297 19.8507 30.9126 19.7595C31.0927 19.6704 31.2569 19.5537 31.3999 19.4141C31.5424 19.2749 31.662 19.1142 31.7537 18.9384C31.8471 18.7598 31.9062 18.5768 31.942 18.3798C31.9779 18.1861 31.9895 17.9884 31.995 17.7927C31.9975 17.7028 31.9987 17.6128 31.9991 17.5229C32 17.4159 32 17.3093 32 17.2023V2.79794C32 2.6909 32 2.58413 31.9991 2.47729C31.9987 2.38739 31.9975 2.29747 31.995 2.20756C31.9895 2.01166 31.9779 1.81392 31.942 1.62021C31.9062 1.42332 31.8471 1.24018 31.7537 1.06158C31.662 0.885801 31.5424 0.725314 31.3999 0.585948C31.2569 0.446581 31.0927 0.329788 30.9126 0.240494C30.7297 0.149559 30.5421 0.0918038 30.3409 0.0563959C30.142 0.021592 29.9395 0.0100222 29.739 0.00471853C29.6465 0.0022649 29.5544 0.00126457 29.4623 0.000622847C29.3531 0 29.2435 0 29.1343 0Z" fill="black"/>
<path d="M29.1343 0.666634L29.4574 0.667238C29.545 0.667842 29.6325 0.668766 29.7205 0.671107C29.8737 0.675146 30.0528 0.683243 30.2197 0.71246C30.3649 0.737978 30.4866 0.776783 30.6034 0.83484C30.7187 0.892047 30.8244 0.967016 30.9166 1.05695C31.0092 1.14749 31.0861 1.25081 31.1455 1.36464C31.2046 1.47779 31.2441 1.59605 31.2701 1.73878C31.3 1.9 31.3082 2.07534 31.3124 2.22575C31.3148 2.31065 31.3159 2.39554 31.3164 2.48246C31.3172 2.58757 31.3172 2.69262 31.3172 2.79794V17.2023C31.3172 17.3076 31.3172 17.4124 31.3163 17.5198C31.3159 17.6047 31.3148 17.6896 31.3124 17.7746C31.3082 17.9248 31.3 18.1001 31.2697 18.2632C31.2441 18.4039 31.2047 18.5222 31.1452 18.6359C31.086 18.7495 31.0092 18.8527 30.917 18.9427C30.8242 19.0333 30.7189 19.108 30.6022 19.1657C30.4863 19.2235 30.3648 19.2623 30.2211 19.2875C30.0508 19.3172 29.8641 19.3253 29.7236 19.329C29.6352 19.331 29.5471 19.3322 29.457 19.3326C29.3496 19.3334 29.2417 19.3334 29.1343 19.3334H2.86576C2.86433 19.3334 2.86293 19.3334 2.86148 19.3334C2.75527 19.3334 2.64884 19.3334 2.54069 19.3326C2.45252 19.3322 2.36453 19.331 2.27947 19.3291C2.13571 19.3253 1.94897 19.3172 1.78002 19.2877C1.63509 19.2623 1.51358 19.2235 1.39611 19.165C1.28052 19.1078 1.17529 19.0331 1.08247 18.9423C0.99037 18.8526 0.913831 18.7497 0.854653 18.636C0.795417 18.5224 0.755785 18.4037 0.729726 18.2613C0.699604 18.0985 0.691329 17.9239 0.687194 17.7748C0.684833 17.6894 0.683847 17.604 0.683287 17.5191L0.682861 17.2684L0.682881 17.2023V2.79794L0.682861 2.73177L0.683267 2.48167C0.683847 2.39626 0.684833 2.31087 0.687194 2.22554C0.691329 2.07623 0.699604 1.90161 0.729976 1.73744C0.755804 1.59628 0.795417 1.47764 0.854963 1.36347C0.913677 1.25062 0.990351 1.1476 1.08294 1.05723C1.17516 0.967167 1.28073 0.892293 1.39706 0.834538C1.51327 0.776764 1.63501 0.737978 1.77994 0.712517C1.94694 0.683224 2.12618 0.675146 2.27968 0.671088C2.36718 0.668766 2.45468 0.667842 2.54153 0.667256L2.86576 0.666634H29.1343Z" fill="white"/>
<path d="M8.73583 6.72684C9.00982 6.39227 9.19575 5.94304 9.14672 5.48397C8.74563 5.50344 8.25618 5.7423 7.97281 6.07714C7.71838 6.36388 7.49318 6.83192 7.55189 7.27174C8.00213 7.30987 8.45196 7.05203 8.73583 6.72684Z" fill="black"/>
<path d="M9.14156 7.35762C8.4877 7.3196 7.93176 7.71991 7.6195 7.71991C7.30708 7.71991 6.82892 7.37678 6.31175 7.38603C5.63863 7.39568 5.01404 7.76724 4.67246 8.35819C3.96988 9.5404 4.48705 11.294 5.17027 12.2568C5.50206 12.7332 5.90192 13.2577 6.4288 13.2388C6.92661 13.2198 7.12173 12.9242 7.72684 12.9242C8.3315 12.9242 8.50726 13.2388 9.03423 13.2293C9.5807 13.2198 9.92234 12.7527 10.2541 12.2759C10.6347 11.7329 10.7906 11.2086 10.8004 11.1798C10.7906 11.1703 9.74661 10.7793 9.73693 9.60692C9.72707 8.62527 10.5565 8.15834 10.5956 8.12939C10.1272 7.45304 9.39529 7.37678 9.14156 7.35762Z" fill="black"/>
<path d="M14.8348 6.02912C16.256 6.02912 17.2456 6.98549 17.2456 8.37789C17.2456 9.77526 16.2356 10.7366 14.7992 10.7366H13.2257V13.1795H12.0889V6.02912L14.8348 6.02912ZM13.2257 9.80499H14.5302C15.52 9.80499 16.0833 9.28475 16.0833 8.38286C16.0833 7.48107 15.52 6.96571 14.5353 6.96571H13.2257V9.80499Z" fill="black"/>
<path d="M17.5427 11.6979C17.5427 10.7861 18.2584 10.2262 19.5274 10.1568L20.9891 10.0726V9.67127C20.9891 9.09149 20.5881 8.74463 19.9182 8.74463C19.2836 8.74463 18.8877 9.04188 18.7914 9.50774H17.756C17.8169 8.56618 18.639 7.87247 19.9588 7.87247C21.253 7.87247 22.0803 8.54143 22.0803 9.58697V13.1795H21.0296V12.3223H21.0044C20.6948 12.902 20.0197 13.2687 19.3193 13.2687C18.2737 13.2687 17.5427 12.6344 17.5427 11.6979ZM20.9891 11.2272V10.8159L19.6745 10.8952C19.0197 10.9398 18.6492 11.2222 18.6492 11.6682C18.6492 12.124 19.035 12.4214 19.6237 12.4214C20.3901 12.4214 20.9891 11.906 20.9891 11.2272Z" fill="black"/>
<path d="M23.0721 15.0972V14.23C23.1531 14.2498 23.3358 14.2498 23.4273 14.2498C23.9348 14.2498 24.2089 14.0417 24.3763 13.5066C24.3763 13.4966 24.4729 13.1895 24.4729 13.1845L22.5442 7.96661H23.7317L25.082 12.2083H25.1022L26.4525 7.96661H27.6097L25.6097 13.452C25.1531 14.7157 24.6252 15.122 23.5187 15.122C23.4273 15.122 23.1531 15.112 23.0721 15.0972Z" fill="black"/>
</g>
<defs>
<clipPath id="clip0_1335_10007">
<rect width="32" height="20" fill="white"/>
</clipPath>
</defs>
</svg>
