<svg width="108" height="81" viewBox="0 0 108 81" fill="none" xmlns="http://www.w3.org/2000/svg">
<path d="M58.0293 40.492C61.0024 44.1166 59.7674 47.0759 58.5095 49.6682C57.9378 50.884 58.8069 51.3887 59.4472 51.687C60.0876 51.9852 61.7114 51.9164 62.1688 52.0999C62.6491 52.2834 63.0836 52.9487 63.6096 53.3157C64.1356 53.6828 65.2791 54.2792 66.1482 54.8986C67.0173 55.518 67.8863 55.5639 68.4581 55.8621C69.0299 56.1604 69.5787 56.5503 69.8761 56.3209C70.1734 56.0915 70.8137 55.8621 71.294 55.9768C71.7743 56.0915 72.2546 56.7339 72.6433 57.7432C73.0321 58.7526 71.7514 58.592 70.9967 58.4773C70.242 58.3626 68.7554 58.2938 67.8177 58.1791C66.8801 58.0644 66.0796 57.1468 65.6908 57.0091C65.2791 56.8715 63.9527 56.8256 63.541 56.5962C63.1065 56.3668 62.7634 55.8851 62.3289 55.9768C61.8943 56.0686 61.071 56.0227 60.4535 55.9998C59.836 55.9768 59.2414 56.2062 57.8234 56.4356C56.4055 56.665 54.7817 56.5274 53.6611 56.5962C52.5404 56.665 51.6485 56.4815 50.8251 56.3209C50.0018 56.1604 50.0933 55.8392 49.0641 55.8392C48.035 55.8392 46.5713 55.6786 45.4964 55.0821C44.4444 54.4857 44.5816 52.9946 44.2157 53.0634C43.8726 53.1322 39.8932 54.7839 38.2694 54.9216C37.0801 55.0133 35.9138 55.0363 34.7245 55.1969C33.9927 55.2886 32.6891 55.3345 31.0195 56.5503C29.1213 57.9038 27.1545 58.4085 25.6679 58.0415C24.5701 57.7662 24.0899 57.0321 23.2208 56.0686C22.3746 55.1051 22.1688 54.9216 21.5513 54.3481C21.071 53.9122 19.9732 52.4669 20.019 52.834C20.0418 53.1781 21.6199 58.2709 23.3123 57.8579C25.0275 57.445 25.8509 58.2479 26.1253 58.5003C26.3997 58.7526 27.0859 60.6337 27.3374 61.2072C27.6119 61.7578 25.0275 61.2761 24.0212 61.0925C23.015 60.8861 23.2894 60.3814 21.6656 60.1979C20.0418 60.0373 19.2642 58.592 19.0813 58.2021C18.8983 57.8121 18.2122 56.4356 17.2517 54.5316C16.9086 53.8434 14.6902 51.4346 12.7234 49.1865C10.7565 46.9383 12.2659 44.3919 12.9978 43.8872C14.1184 43.0843 14.8274 43.3366 14.5758 42.6714C14.3243 42.0061 13.7983 40.882 13.5695 40.0791C13.3408 39.2762 13.1808 39.2532 12.3803 38.2668C11.557 37.2574 10.5964 35.514 10.2305 34.344C9.86457 33.174 9.75022 30.6506 9.47578 29.8935C9.20133 29.1365 8.46949 29.3659 7.66903 28.9759C6.89144 28.5859 6.06811 26.9342 4.51294 26.4525C3.32369 26.0854 2.59184 25.879 1.72277 24.8237C0.739351 23.6537 0.968054 23.1949 1.35685 22.782C1.81425 22.3003 4.74164 24.2043 4.53581 22.5067C4.42146 21.5891 3.96405 21.2679 3.36943 20.3733C2.61471 19.2033 1.90573 18.4233 1.81425 17.7351C1.6999 16.8404 2.13443 15.6475 3.11785 15.1658C3.73535 14.8676 7.00579 16.7716 9.08698 17.2534C10.139 17.4828 11.4655 17.2992 12.4946 17.3681C13.5238 17.4369 14.7817 17.7122 14.7817 17.7122C14.7817 17.7122 15.1933 17.5286 14.8045 17.0698C14.4157 16.611 12.9978 15.7852 12.0372 14.2482C11.0767 12.7112 10.3677 10.9447 10.4363 9.98124C10.5049 9.10951 10.9166 8.19189 11.4884 8.51305C12.0601 8.83422 12.609 11.3347 13.3637 12.2982C14.0727 13.2158 15.2619 13.927 15.9252 14.2482C16.5198 14.5464 17.0001 14.7299 17.1144 14.707C17.2288 14.684 16.7256 12.8488 16.5427 12.0229C16.3597 11.1971 16.2225 9.68302 16.7028 9.27009C17.183 8.85716 18.0521 8.94892 18.0064 10.6236C17.9606 12.2982 18.3494 12.9406 18.8526 13.927C19.3557 14.9134 19.5158 15.3722 19.7216 15.2117C19.9275 15.0511 19.836 13.7205 19.6988 12.6653C19.5615 11.61 19.5844 9.7289 19.5844 9.01774C19.5844 8.32953 19.5844 6.70076 20.4992 7.02193C21.414 7.32015 20.8194 8.58188 21.0024 10.2106C21.1853 11.7706 21.5284 12.9635 22.4889 13.2847C23.015 13.4452 24.6616 14.0417 26.5827 12.4359C28.1608 11.1053 27.1773 8.67364 28.4809 9.36185C29.35 9.82066 29.7845 8.12307 30.3334 9.27009C30.585 9.79772 30.1962 10.5777 30.1962 10.9447C30.2191 11.5183 30.9052 11.5183 31.6828 11.22C32.2088 11.0136 33.1693 10.2565 33.6267 10.6695C34.2214 11.1741 32.6433 13.3994 30.9509 13.6288C29.3957 13.8352 28.1379 14.294 27.0172 14.707C25.8966 15.1199 23.9755 15.8999 23.7697 16.1063C23.541 16.3128 23.2208 16.7487 23.5867 16.8634C23.9526 17.001 25.9652 17.4369 27.6576 17.3451C29.35 17.2534 31.7056 17.1845 32.7577 16.7716C33.8097 16.3816 35.0218 15.464 35.4792 14.9364C36.051 14.294 36.5313 12.8717 36.6685 11.7018C36.8057 10.5318 36.6227 9.38479 37.2631 9.15539C37.9035 8.92598 38.5896 11.3577 37.9721 13.5141C37.3546 15.6934 36.1882 17.2075 37.6748 17.5286C39.1613 17.8498 41.1282 17.3451 42.2259 16.9322C44.5587 16.0375 44.9704 12.4359 45.565 12.1376C46.4569 11.7247 46.3655 13.6058 46.2282 14.684C46.0224 16.3357 47.1888 16.3357 48.7211 15.6017C50.3449 14.8217 51.5799 11.7018 52.3575 11.3577C53.8898 10.6465 51.6713 16.3357 48.6982 17.7351C47.143 18.4692 42.6833 19.7768 40.625 19.8686C38.5438 19.9374 35.5021 19.8686 33.2151 19.7998C30.9281 19.7309 26.9715 19.5933 25.2334 19.9603C23.4952 20.3274 20.545 21.4056 20.9109 21.7956C21.2768 22.1856 22.9235 22.9885 23.4724 23.3555C24.0212 23.7226 26.7657 25.2596 27.406 25.7413C28.0693 26.2231 29.6702 27.2095 30.8137 28.4483C33.1465 30.9488 37.1945 32.784 37.6519 32.9905C37.9721 33.1281 38.1093 33.3576 38.2465 33.5411" fill="#B70E0C"/>
<path d="M58.0293 40.492C61.0024 44.1166 59.7674 47.0759 58.5095 49.6682C57.9378 50.884 58.8069 51.3887 59.4472 51.687C60.0876 51.9852 61.7114 51.9164 62.1688 52.0999C62.6491 52.2834 63.0836 52.9487 63.6096 53.3157C64.1356 53.6828 65.2791 54.2792 66.1482 54.8986C67.0173 55.518 67.8863 55.5639 68.4581 55.8621C69.0299 56.1603 69.5787 56.5503 69.8761 56.3209C70.1734 56.0915 70.8137 55.8621 71.294 55.9768C71.7743 56.0915 72.2546 56.7339 72.6433 57.7432C73.0321 58.7526 71.7514 58.592 70.9967 58.4773C70.242 58.3626 68.7554 58.2938 67.8177 58.1791C66.8801 58.0644 66.0796 57.1468 65.6908 57.0091C65.2791 56.8715 63.9527 56.8256 63.541 56.5962C63.1065 56.3668 62.7634 55.8851 62.3289 55.9768C61.8943 56.0686 61.071 56.0227 60.4535 55.9998C59.836 55.9768 59.2414 56.2062 57.8234 56.4356C56.4055 56.665 54.7817 56.5274 53.6611 56.5962C52.5404 56.665 51.6485 56.4815 50.8251 56.3209C50.0018 56.1603 50.0933 55.8392 49.0641 55.8392C48.035 55.8392 46.5713 55.6786 45.4964 55.0822C44.4444 54.4857 44.5816 52.9946 44.2157 53.0634C43.8726 53.1322 39.8932 54.7839 38.2694 54.9216C37.0801 55.0133 35.9138 55.0363 34.7245 55.1969C33.9927 55.2886 32.6891 55.3345 31.0195 56.5503C29.1213 57.9038 27.1545 58.4085 25.6679 58.0415C24.5701 57.7662 24.0899 57.0321 23.2208 56.0686C22.3746 55.1051 22.1688 54.9216 21.5513 54.3481C21.071 53.9122 19.9732 52.4669 20.019 52.834C20.0418 53.1781 21.6199 58.2709 23.3123 57.8579C25.0275 57.445 25.8509 58.2479 26.1253 58.5003C26.3997 58.7526 27.0859 60.6337 27.3374 61.2072C27.6119 61.7578 25.0275 61.2761 24.0212 61.0925C23.015 60.8861 23.2894 60.3814 21.6656 60.1979C20.0418 60.0373 19.2642 58.592 19.0813 58.2021C18.8983 57.8121 18.2122 56.4356 17.2517 54.5316C16.9086 53.8434 14.6902 51.4346 12.7234 49.1865C10.7565 46.9383 12.2659 44.3919 12.9978 43.8872C14.1184 43.0843 14.8274 43.3366 14.5758 42.6714C14.3243 42.0061 13.7983 40.882 13.5695 40.0791C13.3408 39.2762 13.1808 39.2532 12.3803 38.2668C11.557 37.2574 10.5964 35.514 10.2305 34.344C9.86457 33.174 9.75022 30.6506 9.47578 29.8935C9.20133 29.1365 8.46949 29.3659 7.66903 28.9759C6.89144 28.5859 6.06811 26.9342 4.51294 26.4525C3.32369 26.0854 2.59184 25.879 1.72277 24.8237C0.739351 23.6537 0.968054 23.1949 1.35685 22.782C1.81425 22.3003 4.74164 24.2043 4.53581 22.5067C4.42146 21.5891 3.96405 21.2679 3.36943 20.3733C2.61471 19.2033 1.90573 18.4233 1.81425 17.7351C1.6999 16.8404 2.13443 15.6475 3.11785 15.1658C3.73535 14.8676 7.00579 16.7716 9.08698 17.2534C10.139 17.4828 11.4655 17.2992 12.4946 17.3681C13.5238 17.4369 14.7817 17.7122 14.7817 17.7122C14.7817 17.7122 15.1933 17.5286 14.8045 17.0698C14.4157 16.611 12.9978 15.7852 12.0372 14.2482C11.0767 12.7112 10.3677 10.9447 10.4363 9.98124C10.5049 9.10951 10.9166 8.19189 11.4884 8.51305C12.0601 8.83422 12.609 11.3347 13.3637 12.2982C14.0727 13.2158 15.2619 13.927 15.9252 14.2482C16.5198 14.5464 17.0001 14.7299 17.1144 14.707C17.2288 14.684 16.7256 12.8488 16.5427 12.0229C16.3597 11.1971 16.2225 9.68302 16.7028 9.27009C17.183 8.85716 18.0521 8.94892 18.0064 10.6236C17.9606 12.2982 18.3494 12.9406 18.8526 13.927C19.3557 14.9134 19.5158 15.3722 19.7216 15.2117C19.9275 15.0511 19.836 13.7205 19.6988 12.6653C19.5615 11.61 19.5844 9.7289 19.5844 9.01774C19.5844 8.32953 19.5844 6.70076 20.4992 7.02193C21.414 7.32015 20.8194 8.58188 21.0024 10.2106C21.1853 11.7706 21.5284 12.9635 22.4889 13.2847C23.015 13.4452 24.6616 14.0417 26.5827 12.4359C28.1608 11.1053 27.1773 8.67364 28.4809 9.36185C29.35 9.82066 29.7845 8.12307 30.3334 9.27009C30.585 9.79772 30.1962 10.5777 30.1962 10.9447C30.2191 11.5183 30.9052 11.5183 31.6828 11.22C32.2088 11.0136 33.1693 10.2565 33.6267 10.6695C34.2214 11.1741 32.6433 13.3994 30.9509 13.6288C29.3957 13.8352 28.1379 14.294 27.0172 14.707C25.8966 15.1199 23.9755 15.8999 23.7697 16.1063C23.541 16.3128 23.2208 16.7487 23.5867 16.8634C23.9526 17.001 25.9652 17.4369 27.6576 17.3451C29.35 17.2534 31.7056 17.1845 32.7577 16.7716C33.8097 16.3816 35.0218 15.464 35.4792 14.9364C36.051 14.294 36.5313 12.8717 36.6685 11.7018C36.8057 10.5318 36.6227 9.38479 37.2631 9.15539C37.9035 8.92598 38.5896 11.3577 37.9721 13.5141C37.3546 15.6934 36.1882 17.2075 37.6748 17.5286C39.1613 17.8498 41.1282 17.3451 42.2259 16.9322C44.5587 16.0375 44.9704 12.4359 45.565 12.1376C46.4569 11.7247 46.3655 13.6058 46.2282 14.684C46.0224 16.3357 47.1888 16.3357 48.7211 15.6017C50.3449 14.8217 51.5799 11.7018 52.3575 11.3577C53.8898 10.6465 51.6713 16.3357 48.6982 17.7351C47.143 18.4692 42.6833 19.7768 40.625 19.8686C38.5438 19.9374 35.5021 19.8686 33.2151 19.7998C30.9281 19.7309 26.9715 19.5933 25.2334 19.9603C23.4952 20.3274 20.545 21.4056 20.9109 21.7956C21.2768 22.1856 22.9235 22.9885 23.4724 23.3555C24.0212 23.7226 26.7657 25.2596 27.406 25.7413C28.0693 26.2231 29.6702 27.2095 30.8137 28.4483C33.1465 30.9488 37.1945 32.784 37.6519 32.9905C37.9721 33.1281 38.1093 33.3576 38.2465 33.5411" stroke="white" stroke-width="0.7" stroke-miterlimit="10" stroke-linejoin="round"/>
<path d="M19.0356 20.9693C19.3787 21.7952 20.7509 22.7357 21.9402 22.9192C23.1294 23.1028 24.4559 23.4239 25.1649 23.2633C25.8738 23.1028 26.1025 22.8504 26.5142 22.3687C26.903 21.8869 27.4976 20.694 26.194 20.8087C24.8676 20.9005 23.3581 20.8317 22.7635 20.6481C22.1689 20.4417 21.7115 20.1893 21.4141 19.8911C21.0711 19.547 20.8195 19.3635 20.2249 19.4323" fill="#B70E0C"/>
<path d="M19.0356 20.9693C19.3787 21.7952 20.7509 22.7357 21.9402 22.9192C23.1294 23.1028 24.4559 23.4239 25.1649 23.2633C25.8738 23.1028 26.1025 22.8504 26.5142 22.3687C26.903 21.8869 27.4976 20.694 26.194 20.8087C24.8676 20.9005 23.3581 20.8317 22.7635 20.6481C22.1689 20.4417 21.7115 20.1893 21.4141 19.8911C21.0711 19.547 20.8195 19.3635 20.2249 19.4323" stroke="white" stroke-width="0.7" stroke-miterlimit="10" stroke-linejoin="round"/>
<path d="M38.2238 33.5639C38.2238 33.5639 37.1946 31.6369 38.5668 31.0863C39.939 30.5357 40.0076 30.6275 40.8767 30.2375C41.7458 29.8475 42.6377 29.4575 43.2323 29.1593C43.5068 29.0217 45.4279 27.6911 47.166 27.6682C48.401 27.6452 49.11 27.6452 52.4948 27.9435C55.9025 28.2417 58.807 28.6775 61.6429 27.5993C64.4788 26.4982 67.7492 26.0623 69.8304 24.3877C71.9116 22.713 74.4731 20.2584 75.9825 18.882C77.4691 17.5285 79.3444 16.2209 81.2884 14.9362C83.2324 13.6516 86.6629 11.541 88.0123 10.2564C88.0123 10.2564 90.5966 7.64116 91.4428 6.67766C92.2661 5.7371 95.6509 2.52544 96.9316 1.24077C99.7676 -1.4662 99.4245 3.85598 97.3204 7.38881C95.994 9.61404 99.9734 7.36587 102.878 5.39299C104.593 4.24597 104.776 7.43469 103.473 9.61404C102.466 11.3116 100.545 13.5598 101.346 13.491C102.443 13.3992 104.433 12.8945 106.011 12.4816C107.978 11.9769 107.017 15.395 102.398 18.5379C99.7676 20.3272 104.136 19.5014 106.08 19.4784C108.275 19.4784 105.554 24.25 97.8465 25.9247C95.7881 26.3606 101.712 26.6817 102.466 27.3011C103.381 28.0352 100.522 30.3063 96.8173 30.6275C94.8276 30.811 99.9734 31.4304 100.637 31.7974C102.192 32.6233 99.1958 34.5274 95.9482 34.7797C94.233 34.9173 96.3141 35.1926 96.7029 35.6744C97.5949 36.7526 91.4657 36.8673 92.7006 37.349C94.5303 38.0372 93.7069 38.5419 91.5343 38.6337C88.4239 38.7484 92.998 40.7442 90.0248 40.813C88.241 40.836 88.241 40.3772 88.8813 41.3407C89.4988 42.3042 85.1992 41.2719 85.9082 42.0059C86.6629 42.763 85.3364 43.3135 84.1014 42.6483C82.8665 41.983 83.9871 42.8547 83.2095 43.0612C82.2718 43.2906 81.4028 42.3042 81.4028 43.0612C81.4256 43.7953 79.7104 42.4877 79.8476 42.9465C80.0305 43.5659 78.5211 43.3824 76.8287 42.3959C75.1363 41.4095 66.6515 41.8912 64.5931 41.7307C62.672 41.593 60.4536 40.813 58.0065 40.5148C55.8567 40.2625 55.1249 39.7119 54.393 39.8037C53.6383 39.8954 50.8939 39.9413 48.6983 39.5513C46.5028 39.1613 45.8167 38.7255 44.6274 39.7348" fill="#B70E0C"/>
<path d="M38.2238 33.5639C38.2238 33.5639 37.1946 31.6369 38.5668 31.0863C39.939 30.5357 40.0076 30.6275 40.8767 30.2375C41.7458 29.8475 42.6377 29.4575 43.2323 29.1593C43.5068 29.0217 45.4279 27.6911 47.166 27.6682C48.401 27.6452 49.11 27.6452 52.4948 27.9435C55.9025 28.2417 58.807 28.6775 61.6429 27.5993C64.4788 26.4982 67.7492 26.0623 69.8304 24.3877C71.9116 22.713 74.4731 20.2584 75.9825 18.882C77.4691 17.5285 79.3444 16.2209 81.2884 14.9362C83.2324 13.6516 86.6629 11.541 88.0123 10.2564C88.0123 10.2564 90.5966 7.64116 91.4428 6.67766C92.2661 5.7371 95.6509 2.52544 96.9316 1.24077C99.7676 -1.4662 99.4245 3.85598 97.3204 7.38881C95.994 9.61404 99.9734 7.36587 102.878 5.39299C104.593 4.24597 104.776 7.43469 103.473 9.61404C102.466 11.3116 100.545 13.5598 101.346 13.491C102.443 13.3992 104.433 12.8945 106.011 12.4816C107.978 11.9769 107.017 15.395 102.398 18.5379C99.7676 20.3272 104.136 19.5014 106.08 19.4784C108.275 19.4784 105.554 24.25 97.8465 25.9247C95.7881 26.3606 101.712 26.6817 102.466 27.3011C103.381 28.0352 100.522 30.3063 96.8173 30.6275C94.8276 30.811 99.9734 31.4304 100.637 31.7974C102.192 32.6233 99.1958 34.5274 95.9482 34.7797C94.233 34.9173 96.3141 35.1926 96.7029 35.6744C97.5949 36.7526 91.4657 36.8673 92.7006 37.349C94.5303 38.0372 93.7069 38.5419 91.5343 38.6337C88.4239 38.7484 92.998 40.7442 90.0248 40.813C88.241 40.836 88.241 40.3772 88.8813 41.3407C89.4988 42.3042 85.1992 41.2718 85.9082 42.0059C86.6629 42.763 85.3364 43.3135 84.1014 42.6483C82.8665 41.983 83.9871 42.8547 83.2095 43.0612C82.2718 43.2906 81.4028 42.3042 81.4028 43.0612C81.4256 43.7953 79.7104 42.4877 79.8476 42.9465C80.0305 43.5659 78.5211 43.3824 76.8287 42.3959C75.1363 41.4095 66.6515 41.8912 64.5931 41.7307C62.672 41.593 60.4536 40.813 58.0065 40.5148C55.8567 40.2625 55.1249 39.7119 54.393 39.8037C53.6383 39.8954 50.8939 39.9413 48.6983 39.5513C46.5028 39.1613 45.8167 38.7255 44.6274 39.7348" stroke="white" stroke-width="0.7" stroke-miterlimit="10" stroke-linejoin="round"/>
<path d="M21.3454 46.8923C20.888 46.7776 19.6301 45.47 18.8525 45.08C18.0749 44.69 16.131 44.4836 15.2162 45.6535C14.2785 46.8235 13.5695 47.9935 14.6902 49.8516C15.8108 51.7098 16.7942 53.6827 17.3202 54.5315" fill="#B70E0C"/>
<path d="M21.3454 46.8923C20.888 46.7776 19.6301 45.47 18.8525 45.08C18.0749 44.69 16.131 44.4836 15.2162 45.6535C14.2785 46.8235 13.5695 47.9935 14.6902 49.8516C15.8108 51.7098 16.7942 53.6827 17.3202 54.5315" stroke="white" stroke-miterlimit="10" stroke-linecap="round" stroke-linejoin="round"/>
<path d="M7.60053 68.4106C7.166 68.2729 6.7086 68.2041 6.20545 68.2041C5.72518 68.2041 5.2449 68.2729 4.83324 68.4335C4.37583 68.617 3.98704 68.8235 3.68973 69.1217C3.36954 69.397 3.11797 69.7411 2.91214 70.1311C2.72918 70.5211 2.6377 70.957 2.6377 71.4387V75.4762C2.6377 75.9809 2.72918 76.3938 2.93501 76.7838C3.11797 77.1738 3.36954 77.5179 3.7126 77.7932C4.05565 78.0914 4.44444 78.3208 4.85611 78.4585C5.26777 78.6191 5.72518 78.7108 6.22832 78.7108C6.80008 78.7108 7.166 78.6649 7.60053 78.5044C8.44673 78.2061 8.81266 77.8162 9.06423 77.5638L9.10997 77.5179C9.17858 77.4491 9.20145 77.3344 9.17858 77.2426C9.15571 77.1279 9.10997 77.0362 9.01849 76.9903L8.65256 76.7609C8.4696 76.6462 8.21803 76.6691 8.08081 76.8297C8.05794 76.8526 8.03507 76.8756 8.03507 76.8985C7.7835 77.1509 7.3947 77.3115 7.12026 77.4262C6.86869 77.5409 6.5485 77.5867 6.20545 77.5867C5.88527 77.5867 5.56508 77.5179 5.26777 77.4032C4.99333 77.3115 4.74176 77.1509 4.51305 76.9674C4.30722 76.7838 4.12426 76.5774 4.00991 76.325C3.89556 76.0956 3.82695 75.8203 3.82695 75.4992V71.4616C3.82695 71.1405 3.89556 70.8652 4.00991 70.6358C4.14713 70.3834 4.30722 70.154 4.51305 69.9705C4.71889 69.787 4.97046 69.6494 5.26777 69.5347C5.56508 69.4199 5.88527 69.3741 6.20545 69.3741C6.57137 69.3741 6.86869 69.4199 7.14313 69.5347C7.71489 69.7411 7.96646 69.9935 8.08081 70.1311L8.10368 70.177C8.26377 70.3146 8.49247 70.3376 8.67543 70.2229L9.04136 69.9935C9.13284 69.9246 9.17858 69.8329 9.17858 69.7411C9.17858 69.6494 9.15571 69.5576 9.0871 69.4888C8.8584 69.0988 8.30951 68.6629 7.60053 68.4106Z" fill="#B70E0C"/>
<path d="M5.31354 67.7216C5.47363 67.9051 5.70233 67.9968 5.93104 67.9968H6.13687C6.36557 67.9968 6.59427 67.8821 6.77724 67.6986L7.76066 66.5975C7.85214 66.4828 7.82927 66.3681 7.8064 66.2993C7.76066 66.2075 7.6463 66.1387 7.55482 66.1387H7.00594C6.75437 66.1387 6.61714 66.3222 6.54853 66.391L6.04539 66.9416L6.02252 66.9187H5.99965C5.93104 66.8269 5.70233 66.5745 5.51937 66.391L5.4965 66.3681C5.40502 66.2763 5.2678 66.1387 5.06197 66.1387H4.51308C4.39873 66.1387 4.30725 66.2075 4.23864 66.2993C4.1929 66.391 4.21577 66.5287 4.28438 66.5975L5.31354 67.7216Z" fill="#B70E0C"/>
<path d="M16.863 68.25H11.6943C11.3741 68.25 11.1226 68.5023 11.1226 68.8235V78.0914C11.1226 78.4126 11.3741 78.665 11.6943 78.665H16.8401C17.0459 78.665 17.2289 78.4814 17.2289 78.275V77.885C17.2289 77.6785 17.0459 77.495 16.8401 77.495H12.4719C12.4262 77.495 12.3576 77.4491 12.3576 77.3803V73.5492C12.3576 73.4804 12.4033 73.4345 12.4719 73.4345H15.2392C15.445 73.4345 15.6051 73.274 15.6051 73.0675V72.6775C15.6051 72.4481 15.445 72.2875 15.2392 72.2875H12.4948C12.4262 72.2875 12.3804 72.2416 12.3804 72.1728V69.5117C12.3804 69.4429 12.4262 69.397 12.4948 69.397H16.8859C17.0917 69.397 17.2746 69.2135 17.2746 69.007V68.617C17.2289 68.4106 17.0688 68.25 16.863 68.25Z" fill="#B70E0C"/>
<path d="M24.0671 73.251C24.4101 73.1134 24.7303 72.9298 25.0048 72.7004C25.2792 72.471 25.485 72.1957 25.6451 71.8746C25.8052 71.5763 25.8738 71.2322 25.8738 70.9111C25.8738 70.4982 25.7824 70.1311 25.6451 69.8099C25.485 69.4888 25.2792 69.2135 25.0048 68.9611C24.7303 68.7088 24.4101 68.5253 24.0671 68.4106C23.724 68.2729 23.3581 68.2041 22.9465 68.2041H19.6074C19.2872 68.2041 19.0356 68.4564 19.0356 68.7776V78.2291C19.0356 78.4585 19.2415 78.6649 19.4702 78.6649H19.8361C20.0648 78.6649 20.2706 78.4814 20.2706 78.2291V69.3741C20.2706 69.3741 20.2706 69.3511 20.2935 69.3511H22.9465C23.1752 69.3511 23.4039 69.397 23.6326 69.4888C23.8384 69.5576 24.0214 69.6723 24.1814 69.8099C24.3415 69.9476 24.4559 70.1082 24.5474 70.2917C24.6388 70.4523 24.6617 70.6587 24.6617 70.9111C24.6617 71.0487 24.616 71.2322 24.5474 71.3928C24.433 71.5993 24.2958 71.7369 24.1586 71.8516C23.9985 71.9893 23.8155 72.104 23.6097 72.1957C23.4267 72.2646 23.198 72.3104 22.9465 72.3104H20.8195C20.5908 72.3104 20.385 72.494 20.385 72.7463V73.2281C20.385 73.3198 20.4307 73.4116 20.4765 73.5033L24.6388 78.5502C24.7075 78.642 24.8218 78.7108 24.9362 78.7108H25.3707C25.5308 78.7108 25.668 78.6191 25.7595 78.4585C25.8281 78.2979 25.8052 78.1373 25.6909 77.9997L22.0316 73.4575H22.9465C23.3581 73.4575 23.724 73.3886 24.0671 73.251Z" fill="#B70E0C"/>
<path d="M33.8326 68.2266H33.6039C33.3524 68.2266 33.1694 68.3642 33.1008 68.5936L30.7909 76.6686L28.5039 68.5936C28.4581 68.3642 28.2523 68.2266 28.0007 68.2266H27.772C27.6119 68.2266 27.4747 68.2954 27.3832 68.4101C27.2917 68.5248 27.2689 68.6854 27.3146 68.846L29.9676 78.2745C30.0133 78.5039 30.2649 78.6874 30.5165 78.6874H31.0882C31.3398 78.6874 31.5456 78.5268 31.6371 78.2745L34.3129 68.846C34.3586 68.7083 34.3129 68.5707 34.2214 68.4101C34.1299 68.2724 33.9927 68.2266 33.8326 68.2266Z" fill="#B70E0C"/>
<path d="M41.5401 68.25H36.3943C36.0741 68.25 35.8225 68.5023 35.8225 68.8235V78.0914C35.8225 78.4126 36.0741 78.665 36.3943 78.665H41.5401C41.7459 78.665 41.9289 78.4814 41.9289 78.275V77.885C41.9289 77.6785 41.7459 77.495 41.5401 77.495H37.149C37.1032 77.495 37.0346 77.4491 37.0346 77.3803V73.5492C37.0346 73.4804 37.0804 73.4345 37.149 73.4345H39.9163C40.1221 73.4345 40.2822 73.274 40.2822 73.0675V72.6775C40.2822 72.4481 40.1221 72.2875 39.9163 72.2875H37.1719C37.1032 72.2875 37.0575 72.2416 37.0575 72.1728V69.5117C37.0575 69.4429 37.1032 69.397 37.1719 69.397H41.5629C41.7688 69.397 41.9517 69.2135 41.9517 69.007V68.617C41.906 68.4106 41.7459 68.25 41.5401 68.25Z" fill="#B70E0C"/>
<path d="M50.1162 68.2266H49.7503C49.5216 68.2266 49.3158 68.433 49.3158 68.6624V76.2557L45.4049 68.5707C45.2906 68.3642 45.1076 68.2495 44.8789 68.2495H44.3987C44.1242 68.2495 43.8955 68.4789 43.8955 68.7542V78.2286C43.8955 78.4809 44.1013 78.6874 44.33 78.6874H44.6502C44.8789 78.6874 45.0848 78.4809 45.0848 78.2286V70.6353L49.0184 78.2974C49.1328 78.5268 49.3844 78.6645 49.6359 78.6645H50.0476C50.322 78.6645 50.5279 78.458 50.5279 78.1827V68.6395C50.5279 68.433 50.3449 68.2266 50.1162 68.2266Z" fill="#B70E0C"/>
<path d="M58.2582 68.2266H57.5492C57.4348 68.2266 57.3434 68.2954 57.2747 68.3871L55.3308 72.0576L53.4097 68.3871C53.3639 68.2724 53.2496 68.2266 53.1352 68.2266H52.3805C52.289 68.2266 52.2204 68.2724 52.1518 68.3413C52.0832 68.433 52.0603 68.5477 52.1061 68.6624L54.6675 73.5487C54.6904 73.5946 54.6904 73.6405 54.6904 73.6864V78.3892C54.6904 78.5498 54.8276 78.6874 54.9877 78.6874H55.651C55.811 78.6874 55.9483 78.5498 55.9483 78.3892V73.6635C55.9483 73.6176 55.9483 73.5717 55.9711 73.5258L58.4869 68.6624C58.5326 68.5707 58.5326 68.4789 58.4869 68.3871C58.464 68.2724 58.3725 68.2266 58.2582 68.2266Z" fill="#B70E0C"/>
<path d="M55.1478 68.0203H55.6052C55.7196 68.0203 55.8568 67.9514 55.9025 67.8367L56.6115 66.5979C56.6801 66.4832 56.6801 66.3456 56.6115 66.2309C56.5429 66.1391 56.4285 66.0703 56.3142 66.0703H55.6967C55.5366 66.0703 55.4222 66.1621 55.3765 66.2768L54.8505 67.5156C54.8047 67.6303 54.8047 67.7679 54.8734 67.8367C54.9191 67.9744 55.0334 68.0203 55.1478 68.0203Z" fill="#B70E0C"/>
<path d="M66.4684 68.2266H66.2855C66.011 68.2266 65.7823 68.456 65.7823 68.7313V77.311C65.7823 77.6092 65.7137 77.8845 65.5994 78.1368C65.485 78.3662 65.3478 78.5727 65.1191 78.7792C64.9361 78.9397 64.6846 79.1003 64.3873 79.215C64.1586 79.3068 63.8841 79.3527 63.5639 79.3756C63.3581 79.3756 63.198 79.5591 63.198 79.7656V80.1327C63.198 80.2474 63.2437 80.3391 63.3123 80.4079C63.381 80.4538 63.4496 80.4997 63.5639 80.4997C63.9527 80.4997 64.3872 80.4309 64.7989 80.2703C65.2106 80.1327 65.5765 79.9032 65.9196 79.605C66.2397 79.3068 66.4913 78.9627 66.6514 78.5956C66.8344 78.2057 66.9258 77.7698 66.9258 77.311V68.7313C66.9716 68.433 66.7658 68.2266 66.4684 68.2266Z" fill="#B70E0C"/>
<path d="M74.7932 68.25H69.6474C69.3273 68.25 69.0757 68.5023 69.0757 68.8235V78.0914C69.0757 78.4126 69.3273 78.665 69.6474 78.665H74.7932C74.9991 78.665 75.182 78.4814 75.182 78.275V77.885C75.182 77.6785 74.9991 77.495 74.7932 77.495H70.4022C70.3564 77.495 70.2878 77.4491 70.2878 77.3803V73.5492C70.2878 73.4804 70.3335 73.4345 70.4022 73.4345H73.1695C73.3753 73.4345 73.5354 73.274 73.5354 73.0675V72.6775C73.5354 72.4481 73.3753 72.2875 73.1695 72.2875H70.425C70.3564 72.2875 70.3107 72.2416 70.3107 72.1728V69.5117C70.3107 69.4429 70.3564 69.397 70.425 69.397H74.8161C75.0219 69.397 75.2049 69.2135 75.2049 69.007V68.617C75.182 68.4106 75.0219 68.25 74.7932 68.25Z" fill="#B70E0C"/>
<path d="M82.7749 77.5174H78.5211C78.361 77.5174 78.2238 77.4027 78.2238 77.2421V68.7083C78.2238 68.433 77.9951 68.1807 77.6977 68.1807H77.4919C77.1946 68.2036 76.9888 68.433 76.9888 68.7083V78.0221C76.9888 78.3662 77.2861 78.6644 77.6291 78.6644H82.7749C82.9808 78.6644 83.1637 78.4809 83.1637 78.2745V77.8845C83.1409 77.7009 82.9808 77.5174 82.7749 77.5174Z" fill="#B70E0C"/>
<path d="M90.6424 68.25H85.4966C85.1764 68.25 84.9248 68.5023 84.9248 68.8235V78.0914C84.9248 78.4126 85.1764 78.665 85.4966 78.665H90.6424C90.8482 78.665 91.0312 78.4814 91.0312 78.275V77.885C91.0312 77.6785 90.8482 77.495 90.6424 77.495H86.2513C86.2055 77.495 86.1369 77.4491 86.1369 77.3803V73.5492C86.1369 73.4804 86.1827 73.4345 86.2513 73.4345H89.0186C89.2244 73.4345 89.3845 73.274 89.3845 73.0675V72.6775C89.3845 72.4481 89.2244 72.2875 89.0186 72.2875H86.2741C86.2055 72.2875 86.1598 72.2416 86.1598 72.1728V69.5117C86.1598 69.4429 86.2055 69.397 86.2741 69.397H90.6424C90.8482 69.397 91.0312 69.2135 91.0312 69.007V68.617C91.0083 68.4106 90.8482 68.25 90.6424 68.25Z" fill="#B70E0C"/>
<path d="M99.2188 68.2266H98.8528C98.6241 68.2266 98.4183 68.433 98.4183 68.6624V76.2557L94.5075 68.5707C94.3931 68.3642 94.2102 68.2495 93.9815 68.2495H93.5012C93.2268 68.2495 92.998 68.4789 92.998 68.7542V78.2286C92.998 78.4809 93.2039 78.6874 93.4326 78.6874H93.7528C93.9815 78.6874 94.1873 78.4809 94.1873 78.2286V70.6353L98.121 78.2974C98.2353 78.5268 98.4869 78.6645 98.7385 78.6645H99.1501C99.4246 78.6645 99.6304 78.458 99.6304 78.1827V68.6395C99.6304 68.433 99.4475 68.2266 99.2188 68.2266Z" fill="#B70E0C"/>
</svg>
