<svg width="120" height="18" viewBox="0 0 120 18" fill="none" xmlns="http://www.w3.org/2000/svg">
<g clip-path="url(#clip0_1538_15973)">
<path fill-rule="evenodd" clip-rule="evenodd" d="M69.975 11.3502L69.1927 13.9749H54.5725L57.6495 3.6264H63.3514L61.0568 11.3502H69.975Z" fill="#004B93"/>
<path fill-rule="evenodd" clip-rule="evenodd" d="M28.0615 8.20388H23.9417L24.724 5.59579H28.8093C29.5566 5.59579 30.2523 6.18456 30.0258 6.90815C29.8349 7.58078 29.2613 8.11954 28.0615 8.20388ZM30.6347 3.62674H19.5955L16.5364 13.975H22.2376L23.3503 10.1724H28.8093C31.9209 10.1724 34.7549 8.84317 35.2938 7.02559C35.7454 5.5456 34.3893 3.62674 30.6347 3.62674Z" fill="#004B93"/>
<path fill-rule="evenodd" clip-rule="evenodd" d="M47.0793 8.20388H42.9595L43.7421 5.59579H47.8446C48.592 5.59579 49.2699 6.18456 49.0611 6.90815C48.8527 7.58078 48.2787 8.11954 47.0793 8.20388ZM49.6521 3.62674H38.6136L35.554 13.975H41.2557L42.386 10.1724H47.8446C50.939 10.1724 53.7893 8.84317 54.3283 7.02559C54.7635 5.5456 53.4075 3.62674 49.6521 3.62674Z" fill="#004B93"/>
<path fill-rule="evenodd" clip-rule="evenodd" d="M13.6323 13.975L14.484 11.1147H1.65439L0.802734 13.975H13.6323Z" fill="#004B93"/>
<path fill-rule="evenodd" clip-rule="evenodd" d="M15.6843 7.07611L16.2232 5.27596H3.37613L2.85498 7.07611H15.6843Z" fill="#004B93"/>
<path fill-rule="evenodd" clip-rule="evenodd" d="M14.7273 10.2735L15.4404 7.90096H2.61083L1.89795 10.2735H14.7273Z" fill="#004B93"/>
<path fill-rule="evenodd" clip-rule="evenodd" d="M16.4658 4.45147L16.7092 3.62663H3.87984L3.63647 4.45147H16.4658Z" fill="#004B93"/>
<path d="M73.6246 7.81803H73.6256V8.01721H73.6246M72.0594 7.19743C72.4577 7.58069 73.01 7.81803 73.6246 7.81803V8.01721C72.9538 8.01697 72.3504 7.75791 71.9144 7.33806L72.0594 7.19743ZM71.416 5.69671C71.416 6.28345 71.6612 6.81394 72.0594 7.19743L71.9144 7.33806C71.4783 6.91844 71.2104 6.33799 71.2104 5.69671H71.416ZM71.416 5.69619H71.2104V5.69572H71.416V5.69619ZM72.0594 4.18135C71.6612 4.56663 71.416 5.10136 71.416 5.69619H71.2104C71.2104 5.04633 71.4783 4.46211 71.9139 4.04023L72.0594 4.18135ZM73.6251 3.55824C73.0104 3.55849 72.4577 3.79532 72.0594 4.18135L71.9139 4.04023C72.35 3.61834 72.9538 3.35929 73.6251 3.35904V3.55824ZM73.6256 3.55824H73.6251V3.35904H73.6256V3.55824ZM73.6256 3.55824H73.6251V3.35904H73.6256V3.55824ZM75.1846 4.18109C74.7845 3.79532 74.2317 3.55849 73.6256 3.55824V3.35904C74.2879 3.35929 74.8917 3.61833 75.3297 4.03997L75.1846 4.18109ZM75.8342 5.69619C75.8342 5.10112 75.5853 4.56663 75.1846 4.18109L75.3297 4.03997C75.7676 4.46211 76.0402 5.04632 76.0402 5.69619H75.8342ZM75.8342 5.69619H76.0402V5.69671H75.8342V5.69619ZM75.1851 7.19691C75.5852 6.81366 75.8342 6.28321 75.8342 5.69671H76.0402C76.0402 6.33803 75.7676 6.91844 75.3297 7.33778L75.1851 7.19691ZM73.6256 7.81803C74.2322 7.81803 74.7845 7.58069 75.1851 7.19691L75.3297 7.33778C74.8917 7.75791 74.2879 8.01697 73.6256 8.01721V7.81803Z" fill="#004B93"/>
<path fill-rule="evenodd" clip-rule="evenodd" d="M72.9643 5.4946H73.8685C74.1638 5.4946 74.4766 5.42745 74.6159 5.04014C74.7544 4.63643 74.4246 4.6031 74.2328 4.6031H73.26L72.9643 5.4946ZM72.4777 6.9082H72.0955L72.9643 4.30014H74.3032C74.7898 4.30014 75.2244 4.45162 75.0331 5.00681C74.9112 5.39359 74.6334 5.52794 74.4246 5.62942C74.5635 5.69657 74.7029 5.764 74.5984 6.11746L74.4766 6.58831C74.4246 6.7398 74.4246 6.79005 74.529 6.85771L74.5115 6.9082H74.0249C74.0249 6.7398 74.1459 6.35277 74.1808 6.25152C74.2507 6.05003 74.2857 5.79758 73.8166 5.79758H72.8599L72.4777 6.9082Z" fill="#004B93"/>
<path d="M119.255 7.17117H87.3723V13.9749H119.255V7.17117Z" fill="#FFCC00"/>
<path fill-rule="evenodd" clip-rule="evenodd" d="M92.9759 8.14009L91.9597 9.48781H97.518C97.7915 9.48781 97.7915 9.58755 97.6541 9.76321C97.518 9.95149 97.278 10.2717 97.1405 10.4488C97.0607 10.5479 96.935 10.7134 97.3696 10.7134H99.6402C99.6402 10.7134 100.005 10.2392 100.313 9.83008C100.724 9.28901 100.348 8.14009 98.8522 8.14009H92.9759Z" fill="#D40511"/>
<path fill-rule="evenodd" clip-rule="evenodd" d="M91.5491 12.5024L93.5919 9.81854H96.136C96.41 9.81854 96.41 9.91865 96.273 10.0947C96.136 10.2826 95.8965 10.592 95.7595 10.7799C95.6801 10.8793 95.5544 11.0448 95.9881 11.0448H99.3878C99.1025 11.4203 98.1902 12.5025 96.5357 12.5025L91.5491 12.5024Z" fill="#D40511"/>
<path fill-rule="evenodd" clip-rule="evenodd" d="M103.269 11.0444L102.162 12.5024H99.2292L100.337 11.0444H103.269Z" fill="#D40511"/>
<path fill-rule="evenodd" clip-rule="evenodd" d="M109.704 8.14009H106.782L105.653 9.62008H104.352L105.471 8.14009H102.549L100.586 10.7134H107.752L109.704 8.14009Z" fill="#D40511"/>
<path fill-rule="evenodd" clip-rule="evenodd" d="M87.3728 11.6194H91.6862L91.4462 11.9284H87.3728" fill="#D40511"/>
<path fill-rule="evenodd" clip-rule="evenodd" d="M87.3728 11.0444H92.1204L91.8799 11.3541H87.3728" fill="#D40511"/>
<path fill-rule="evenodd" clip-rule="evenodd" d="M87.3728 12.2045H91.2412L91.0134 12.5028H87.3728" fill="#D40511"/>
<path fill-rule="evenodd" clip-rule="evenodd" d="M107.502 11.0444L106.383 12.5024H103.462L104.569 11.0444H107.502Z" fill="#D40511"/>
<path fill-rule="evenodd" clip-rule="evenodd" d="M119.255 11.9286H114.965L115.193 11.6199H119.255" fill="#D40511"/>
<path fill-rule="evenodd" clip-rule="evenodd" d="M119.256 12.5025H114.52L114.76 12.2047H119.256" fill="#D40511"/>
<path fill-rule="evenodd" clip-rule="evenodd" d="M115.638 11.0444H119.255V11.3541H115.398L115.638 11.0444Z" fill="#D40511"/>
<path fill-rule="evenodd" clip-rule="evenodd" d="M113.756 8.14009L111.805 10.7134H108.701L110.663 8.14009H113.756Z" fill="#D40511"/>
<path fill-rule="evenodd" clip-rule="evenodd" d="M115.102 11.0444L113.983 12.5024H109.294C108.095 12.5024 107.764 11.9509 108.129 11.4644C108.232 11.3324 108.449 11.0444 108.449 11.0444H115.102Z" fill="#D40511"/>
<path d="M87.4143 5.29097L88.1206 3.24017H88.5671L89.2734 5.29097H88.9748L88.7915 4.75963H87.8863L87.7034 5.29097H87.4143ZM88.3167 3.49496L87.9666 4.52348H88.7116L88.3616 3.49496H88.3167Z" fill="black"/>
<path d="M90.6817 5.32829C90.5428 5.32829 90.4209 5.2967 90.3161 5.23352C90.2112 5.17035 90.1299 5.08234 90.0718 4.96941C90.0142 4.85652 89.9854 4.72446 89.9854 4.57321V4.45515C89.9854 4.30394 90.0142 4.17188 90.0718 4.05894C90.1299 3.9461 90.2112 3.85804 90.3161 3.79485C90.4209 3.73167 90.5428 3.70007 90.6817 3.70007C90.8981 3.70007 91.08 3.77676 91.2279 3.93003L91.0767 4.10094C90.9718 3.99322 90.8466 3.93934 90.7011 3.93934C90.5641 3.93934 90.4568 3.9865 90.3784 4.08072C90.3005 4.17503 90.2613 4.30291 90.2613 4.46446V4.5639C90.2613 4.72549 90.3005 4.85343 90.3784 4.94765C90.4568 5.04196 90.5641 5.08903 90.7011 5.08903C90.8575 5.08903 90.9879 5.03519 91.0928 4.92748L91.2435 5.09834C91.098 5.2517 90.9109 5.32829 90.6817 5.32829Z" fill="black"/>
<path d="M92.1203 5.32829C91.9705 5.32829 91.842 5.2967 91.7352 5.23352C91.628 5.17035 91.5463 5.08234 91.4896 4.96941C91.4329 4.85652 91.4045 4.72446 91.4045 4.57321V4.45515C91.4045 4.30394 91.4329 4.17188 91.4896 4.05894C91.5463 3.9461 91.628 3.85804 91.7352 3.79485C91.842 3.73167 91.9705 3.70007 92.1203 3.70007C92.2701 3.70007 92.3986 3.73167 92.5053 3.79485C92.6126 3.85804 92.6943 3.9461 92.751 4.05894C92.8077 4.17187 92.836 4.30394 92.836 4.45515V4.57321C92.836 4.72445 92.8077 4.85652 92.751 4.96941C92.6943 5.08234 92.6126 5.17035 92.5053 5.23352C92.3986 5.2967 92.2701 5.32829 92.1203 5.32829ZM92.1203 5.09212C92.2573 5.09212 92.3655 5.04603 92.4444 4.95384C92.5237 4.86169 92.5634 4.73168 92.5634 4.56389V4.46445C92.5634 4.29665 92.5237 4.1667 92.4444 4.07451C92.3655 3.98235 92.2573 3.93623 92.1203 3.93623C91.9833 3.93623 91.8751 3.98234 91.7962 4.07451C91.7168 4.1667 91.6771 4.29666 91.6771 4.46445V4.56389C91.6771 4.73169 91.7168 4.86169 91.7962 4.95384C91.8751 5.04603 91.9833 5.09212 92.1203 5.09212Z" fill="black"/>
<path d="M93.1707 5.29102V3.73736H93.4244V4.03568C93.4711 3.94245 93.5377 3.8643 93.6233 3.80107C93.7088 3.73792 93.817 3.70628 93.9473 3.70628C94.0631 3.70628 94.1618 3.73482 94.2445 3.79177C94.3267 3.84875 94.3853 3.93313 94.4193 4.04499C94.4685 3.95177 94.536 3.87207 94.6215 3.80574C94.707 3.73949 94.8185 3.7063 94.9555 3.7063C95.1138 3.7063 95.2395 3.75712 95.3325 3.85858C95.4256 3.96007 95.4724 4.11133 95.4724 4.31222V5.29102H95.1993V4.34639C95.1993 4.21175 95.171 4.11075 95.1143 4.04343C95.0576 3.97615 94.9758 3.94244 94.8686 3.94244C94.768 3.94244 94.6834 3.96938 94.6154 4.02321C94.5469 4.07714 94.4944 4.13821 94.4581 4.20657V5.29102H94.185V4.34639C94.185 4.21175 94.1566 4.11075 94.0999 4.04343C94.0433 3.97615 93.9615 3.94244 93.8543 3.94244C93.7536 3.94244 93.6691 3.96938 93.6006 4.02321C93.5321 4.07714 93.4796 4.13821 93.4433 4.20657V5.29102H93.1707Z" fill="black"/>
<path d="M95.8796 5.88139V3.73736H96.1333V4.03568C96.1891 3.93003 96.2623 3.84875 96.353 3.79177C96.4442 3.73482 96.5477 3.70628 96.6629 3.70628C96.7848 3.70628 96.8921 3.73736 96.9842 3.79951C97.0759 3.86167 97.1472 3.94865 97.1977 4.06054C97.2478 4.1724 97.2729 4.30395 97.2729 4.45515V4.57321C97.2729 4.72446 97.2478 4.85597 97.1977 4.96786C97.1472 5.07971 97.0759 5.16669 96.9842 5.22883C96.8921 5.29102 96.7848 5.32209 96.6629 5.32209C96.5538 5.32209 96.4555 5.29669 96.3677 5.24597C96.2798 5.19523 96.2085 5.12221 96.1527 5.02687V5.88139H95.8796ZM96.5732 3.94244C96.4853 3.94244 96.4045 3.96575 96.3308 4.01235C96.2571 4.05896 96.1976 4.12373 96.1527 4.20657V4.82178C96.1976 4.90467 96.2571 4.96941 96.3308 5.01601C96.4045 5.0626 96.4853 5.08592 96.5732 5.08592C96.7059 5.08592 96.8103 5.03984 96.8864 4.94764C96.962 4.85549 97.0003 4.72756 97.0003 4.56389V4.46446C97.0003 4.30084 96.962 4.17291 96.8864 4.0807C96.8103 3.98855 96.7059 3.94244 96.5732 3.94244Z" fill="black"/>
<path d="M97.9342 5.32206C97.7906 5.32206 97.6739 5.28012 97.5841 5.1962C97.4943 5.11232 97.4495 5.00306 97.4495 4.86841C97.4495 4.7172 97.5062 4.5976 97.6195 4.50949C97.7329 4.42148 97.8869 4.37747 98.0816 4.37747H98.4444V4.32773C98.4444 4.06467 98.3183 3.93312 98.0655 3.93312C97.9928 3.93312 97.9214 3.9461 97.8506 3.97196C97.7802 3.99787 97.7187 4.03463 97.6677 4.08226L97.5265 3.90515C97.6739 3.76842 97.86 3.70007 98.0849 3.70007C98.4978 3.70007 98.7047 3.90933 98.7047 4.32774V4.93057C98.7047 5.0404 98.7496 5.09522 98.8394 5.09522C98.8479 5.09522 98.8569 5.09475 98.8668 5.09367C98.8762 5.09268 98.8885 5.09112 98.9036 5.08901V5.31275C98.8673 5.31899 98.8233 5.32206 98.7718 5.32206C98.5791 5.32206 98.4742 5.22681 98.4572 5.03621C98.3995 5.12738 98.3258 5.19775 98.2356 5.24749C98.1458 5.29717 98.0452 5.32206 97.9342 5.32206ZM98.0145 5.09521C98.1983 5.09521 98.3419 5.00823 98.4444 4.83423V4.58255H98.1076C97.9876 4.58255 97.8936 4.60691 97.8251 4.65557C97.7565 4.70423 97.7221 4.77105 97.7221 4.85595C97.7221 4.9285 97.7485 4.98647 97.801 5.02995C97.8534 5.07348 97.9243 5.09521 98.0145 5.09521Z" fill="black"/>
<path d="M99.144 5.29102V3.73736H99.3977V4.03568C99.4469 3.94456 99.5144 3.86685 99.6 3.80262C99.6855 3.73844 99.7946 3.70628 99.9274 3.70628C100.088 3.70628 100.216 3.75711 100.311 3.85856C100.406 3.96007 100.454 4.11132 100.454 4.31222V5.29097H100.181V4.34639C100.181 4.21173 100.151 4.11074 100.091 4.04342C100.031 3.97613 99.9467 3.94243 99.8376 3.94243C99.7351 3.94243 99.6486 3.96937 99.5792 4.0232C99.5097 4.07713 99.4554 4.1382 99.4171 4.20657V5.29097L99.144 5.29102Z" fill="black"/>
<path d="M101.071 5.8813L101.289 5.29093H101.17L100.624 3.7373H100.92L101.359 5.05479H101.398L101.841 3.7373H102.127L101.35 5.8813H101.071Z" fill="black"/>
<path d="M103.552 5.32829C103.402 5.32829 103.274 5.2967 103.167 5.23352C103.06 5.17035 102.978 5.08234 102.921 4.96941C102.865 4.85652 102.836 4.72446 102.836 4.57321V4.45515C102.836 4.30394 102.865 4.17188 102.921 4.05894C102.978 3.9461 103.06 3.85804 103.167 3.79485C103.274 3.73167 103.402 3.70007 103.552 3.70007C103.702 3.70007 103.83 3.73167 103.937 3.79485C104.044 3.85804 104.126 3.9461 104.183 4.05894C104.239 4.17187 104.268 4.30394 104.268 4.45515V4.57321C104.268 4.72445 104.239 4.85652 104.183 4.96941C104.126 5.08234 104.044 5.17035 103.937 5.23352C103.83 5.2967 103.702 5.32829 103.552 5.32829ZM103.552 5.09212C103.689 5.09212 103.797 5.04603 103.876 4.95384C103.955 4.86169 103.995 4.73168 103.995 4.56389V4.46445C103.995 4.29665 103.955 4.1667 103.876 4.07451C103.797 3.98235 103.689 3.93623 103.552 3.93623C103.415 3.93623 103.307 3.98234 103.228 4.07451C103.148 4.1667 103.109 4.29666 103.109 4.46445V4.56389C103.109 4.73169 103.148 4.86169 103.228 4.95384C103.307 5.04603 103.415 5.09212 103.552 5.09212Z" fill="black"/>
<path d="M104.685 5.29094V3.96104H104.412V3.73729H104.685V3.6472C104.685 3.4504 104.732 3.30648 104.825 3.21528C104.918 3.12416 105.05 3.07855 105.221 3.07855C105.251 3.07855 105.278 3.07963 105.303 3.08165C105.328 3.08377 105.35 3.08687 105.369 3.09101V3.31781C105.322 3.3116 105.284 3.3085 105.253 3.3085C105.142 3.3085 105.065 3.33647 105.022 3.39237C104.979 3.44831 104.958 3.53638 104.958 3.65651V3.73728H105.372V3.96103H104.958V5.29094H104.685Z" fill="black"/>
<path d="M80.8133 1.25157H80.5474V17.003H80.8133V1.25157Z" fill="#004B93"/>
</g>
<defs>
<clipPath id="clip0_1538_15973">
<rect width="120" height="17" fill="white" transform="translate(0 0.5)"/>
</clipPath>
</defs>
</svg>
