<svg width="80" height="35" viewBox="0 0 80 35" fill="none" xmlns="http://www.w3.org/2000/svg">
<g clip-path="url(#clip0_3639_15391)">
<path d="M5.69029 15.6539C8.98987 15.6539 11.2818 13.6528 11.2818 10.8912C11.2818 9.07013 10.3334 7.84943 8.67375 6.84885L6.08545 5.26794C4.62336 4.38744 4.12941 3.60699 4.12941 2.72648C4.12837 2.47931 4.17665 2.23447 4.27136 2.00667C4.36608 1.77886 4.50527 1.5728 4.68058 1.40085C4.85589 1.22889 5.0637 1.0946 5.29154 1.00603C5.51938 0.917452 5.76254 0.87643 6.00642 0.885421C6.33326 0.875918 6.65964 0.916396 6.97456 1.00549L9.58261 5.74822H9.60457L10.7703 1.32567C9.35272 0.717046 7.82465 0.417056 6.28523 0.445167C3.06468 0.445167 1.24695 2.4063 1.24695 4.90774C1.24695 6.9289 2.33364 8.28968 4.17113 9.31027L6.42134 10.551C7.5673 11.1713 8.08101 11.9918 8.08101 12.9524C8.08101 14.2309 7.05359 15.1759 5.65078 15.1759C5.29768 15.19 4.94612 15.1215 4.62336 14.9758L1.8792 9.73274H1.85725L0.691529 14.8535C2.30503 15.3883 3.99257 15.6586 5.69029 15.6539ZM29.4986 14.9313V8.04954C29.4986 6.00837 28.7303 4.94776 27.0487 4.94776C25.9225 4.94776 24.8533 5.56812 23.1959 6.9289C23.1418 6.35107 22.8642 5.81837 22.4237 5.44716C21.9832 5.07595 21.4155 4.89641 20.8447 4.94776C19.7382 4.94776 18.691 5.5481 17.0906 6.84885V4.8477L12.0128 6.64874L13.139 7.6293V14.9335H12.1511V15.2537H17.881V14.9335H17.0906V7.08899C17.4552 6.91535 17.8535 6.82647 18.2564 6.82884C19.106 6.82884 19.343 7.34914 19.343 8.91004V14.9335H18.5505V15.2537H24.0828V14.9335H23.2924V8.04954C23.2944 7.74166 23.2746 7.43404 23.2332 7.12901C23.6128 6.93349 24.0323 6.83069 24.4582 6.82884C25.3078 6.82884 25.5449 7.34914 25.5449 8.91004V14.9335H24.7545V15.2537H30.4843V14.9335L29.4986 14.9313ZM40.3063 14.9313V9.38809C40.3063 6.48642 38.9825 5.04559 36.493 5.04559C34.5172 5.04559 33.0551 5.86607 31.7115 7.38694L31.8103 7.487C32.42 6.97547 33.1922 6.70529 33.9837 6.72656C35.4853 6.72656 36.3547 7.82719 36.3547 10.0285C33.0748 10.3887 31.1407 11.6094 31.1407 13.4504C31.1407 14.7112 32.0101 15.4516 33.2944 15.4516C34.4396 15.3856 35.5247 14.9106 36.3569 14.1108V15.2537H41.2963V14.9335L40.3063 14.9313ZM35.9002 13.8929C35.1099 13.8929 34.7147 13.3926 34.7147 12.4521C34.6765 11.9503 34.8228 11.452 35.1256 11.053C35.4283 10.654 35.8661 10.3825 36.3547 10.2908V13.8329C36.2057 13.8688 36.0533 13.889 35.9002 13.8929ZM50.284 5.02558C49.3752 5.02558 48.0887 5.96612 46.9647 7.46699V4.96555L41.8869 6.68876L43.0131 7.66933V14.9335H42.0252V15.2537H48.4465V14.9335H46.9647V7.68934C47.6562 7.56927 48.5848 8.08957 50.6419 10.3909H50.6572V5.08784C50.5371 5.04641 50.411 5.02538 50.284 5.02558ZM59.9062 13.3926C59.5368 13.5469 59.1399 13.6226 58.7404 13.615C57.2783 13.615 56.7449 12.7545 56.7449 10.4331V5.77046H59.5308V5.45027H56.7449V1.38793L51.2719 5.74822V5.76823H52.7933V11.4515C52.7933 14.053 53.7219 15.4538 56.0731 15.4538C56.8353 15.4837 57.592 15.311 58.2679 14.9529C58.9438 14.5949 59.5154 14.0638 59.9259 13.4126L59.9062 13.3926ZM10.5112 19.7452L12.8624 20.8258L10.2149 29.891L6.32255 20.8258L8.07881 19.7452H0L1.56088 20.8258L7.64633 34.5559H8.67155L14.3618 20.8258L16.1181 19.7452H10.5112ZM19.3035 34.3536C23.0575 34.3536 24.895 32.0122 24.895 29.0905C24.895 25.9487 22.5438 23.9476 19.2838 23.9476C16.0632 23.9476 13.8503 26.2267 13.8503 29.0905C13.8503 32.3124 16.4584 34.3536 19.3035 34.3536ZM21.5164 33.6309C19.8963 33.6309 16.4781 27.6075 16.4781 25.6463C16.4781 25.026 16.7745 24.6658 17.2685 24.6658C19.0072 24.6658 22.3265 30.9294 22.3265 32.6104C22.3265 33.293 22.0499 33.6332 21.5142 33.6332L21.5164 33.6309ZM36.8486 33.8311V23.7675L31.7708 25.5685L32.897 26.5491V32.2924C32.5742 32.4146 32.2338 32.4822 31.8894 32.4925C30.9015 32.4925 30.7632 31.8321 30.7632 30.1512V23.8698L25.6854 25.6686L26.8116 26.6491V30.9516C26.8116 33.333 27.5799 34.3736 29.3603 34.3736C30.4668 34.3736 31.593 33.5731 32.897 32.6126V34.1535H37.8365V33.8333L36.8486 33.8311ZM43.7419 34.3536C45.4982 34.3536 46.9427 33.7332 47.8318 32.3724L47.8121 32.3524C47.6206 32.4139 47.42 32.441 47.2193 32.4325C44.4335 32.4325 41.3117 29.0305 41.3117 25.8087C41.3117 25.086 41.6081 24.728 42.102 24.728C43.2875 24.728 45.0064 26.6491 46.8439 30.1712H46.8637L47.6321 24.588C46.5503 24.1584 45.3978 23.9411 44.2359 23.9476C43.5213 23.9152 42.8078 24.0318 42.1395 24.2903C41.4713 24.5488 40.8627 24.9436 40.3513 25.4503C39.84 25.9569 39.4369 26.5645 39.1671 27.2355C38.8972 27.9064 38.7664 28.6264 38.7827 29.3507C38.7595 30.0157 38.8721 30.6784 39.1134 31.2973C39.3547 31.9162 39.7195 32.4781 40.185 32.9477C40.6505 33.4172 41.2066 33.7845 41.8187 34.0264C42.4307 34.2683 43.0855 34.3797 43.7419 34.3536ZM59.8842 33.8333V26.9493C59.8842 24.9081 59.0148 23.8475 57.3354 23.8475C55.9919 23.8475 54.8459 24.6258 53.5616 25.7486V19.1448L48.4838 20.9459L49.6144 21.9242V33.8311H48.6265V34.1535H54.3564V33.8333H53.566V26.0288C53.9358 25.845 54.3399 25.7427 54.7515 25.7286C55.5616 25.7286 55.937 26.2489 55.937 27.8098V33.8333H55.1467V34.1535H60.8765V33.8333H59.8842ZM70.7708 32.3324C70.5825 32.3732 70.3904 32.3933 70.1979 32.3925C68.7207 32.2919 67.3364 31.6267 66.3253 30.5314C68.6963 29.6309 69.9608 28.17 69.9608 26.5091C69.9608 25.0482 68.6765 23.9476 66.8192 23.9476C63.658 23.9476 61.7217 26.369 61.7217 29.2907C61.7217 32.3925 64.0136 34.3536 66.7995 34.3536C67.5794 34.4027 68.3585 34.2437 69.0588 33.8926C69.7591 33.5415 70.3562 33.0104 70.7906 32.3524L70.7708 32.3324ZM64.9818 24.648C65.8313 24.648 66.9773 26.1288 66.9773 27.8721C67.0237 28.7843 66.7516 29.684 66.2089 30.4135C64.9841 29.2007 64.2572 27.5638 64.1739 25.8309C64.1739 25.0882 64.4702 24.648 64.9818 24.648ZM79.6224 23.9254C78.7135 23.9254 77.4271 24.8659 76.3031 26.3668V23.8698L71.2253 25.593L72.3515 26.5735V33.8333H71.3636V34.1535H77.7849V33.8333H76.3031V26.5891C76.9946 26.469 77.9232 26.9893 79.9802 29.2907H80V23.9876C79.8791 23.9459 79.7523 23.9249 79.6246 23.9254H79.6224Z" fill="#525252"/>
</g>
<defs>
<clipPath id="clip0_3639_15391">
<rect width="80" height="34.1085" fill="white" transform="translate(0 0.445312)"/>
</clipPath>
</defs>
</svg>
