<svg width="20" height="21" viewBox="0 0 20 21" fill="none" xmlns="http://www.w3.org/2000/svg">
<g clip-path="url(#clip0_3939_7523)">
<path d="M2.5 3.16699H5V5.66699H2.5V3.16699Z" fill="black"/>
<path d="M7.5 0.666992V8.16699H0V0.666992H7.5ZM6.25 1.91699H1.25V6.91699H6.25V1.91699ZM5 15.667H2.5V18.167H5V15.667Z" fill="black"/>
<path d="M7.5 13.167V20.667H0V13.167H7.5ZM1.25 14.417V19.417H6.25V14.417H1.25ZM15 3.16699H17.5V5.66699H15V3.16699Z" fill="black"/>
<path d="M12.5 0.666992V8.16699H20V0.666992H12.5ZM18.75 1.91699V6.91699H13.75V1.91699H18.75ZM10 1.91699V0.666992H11.25V3.16699H10V5.66699H8.75V1.91699H10ZM10 8.16699V5.66699H11.25V8.16699H10ZM7.5 10.667V9.41699H8.75V8.16699H10V10.667H11.25V9.41699H17.5V10.667H12.5V11.917H8.75V10.667H7.5ZM7.5 10.667V11.917H2.5V10.667H1.25V11.917H0V9.41699H3.75V10.667H7.5ZM20 11.917H18.75V9.41699H20V11.917ZM18.75 11.917H17.5V14.417H20V13.167H18.75V11.917ZM13.75 11.917H16.25V13.167H15V14.417H13.75V11.917ZM16.25 15.667V14.417H15V15.667H13.75V16.917H11.25V18.167H15V15.667H16.25ZM16.25 15.667H20V16.917H17.5V18.167H16.25V15.667ZM11.25 14.417V15.667H12.5V13.167H8.75V14.417H11.25Z" fill="black"/>
<path d="M8.75 15.667H10V19.417H15V20.667H8.75V15.667ZM20 18.167V20.667H16.25V19.417H18.75V18.167H20Z" fill="black"/>
</g>
<defs>
<clipPath id="clip0_3939_7523">
<rect width="20" height="20" fill="white" transform="translate(0 0.666992)"/>
</clipPath>
</defs>
</svg>
