<svg width="37" height="20" viewBox="0 0 37 20" fill="none" xmlns="http://www.w3.org/2000/svg">
<g clip-path="url(#clip0_1335_9988)">
<path d="M26.8991 0.47393H10.0722C4.8138 0.47393 0.511475 4.73933 0.511475 9.9526C0.511475 15.1659 4.8138 19.4313 10.0722 19.4313H26.8991C32.1575 19.4313 36.4598 15.1659 36.4598 9.9526C36.4598 4.73933 32.1575 0.47393 26.8991 0.47393Z" fill="white"/>
<path d="M26.8991 1.2417C28.0798 1.2417 29.2271 1.47393 30.3075 1.92891C31.3544 2.36966 32.2913 3 33.104 3.80094C33.9119 4.60189 34.5477 5.53554 34.9922 6.57346C35.4511 7.64455 35.6854 8.78199 35.6854 9.9526C35.6854 11.1232 35.4511 12.2607 34.9922 13.3317C34.5477 14.3697 33.9119 15.2986 33.104 16.1043C32.2961 16.9052 31.3544 17.5355 30.3075 17.9763C29.2271 18.4313 28.0798 18.6635 26.8991 18.6635H10.0722C8.89145 18.6635 7.74416 18.4313 6.6638 17.9763C5.6169 17.5355 4.67995 16.9052 3.86729 16.1043C3.05941 15.3033 2.42362 14.3697 1.97905 13.3317C1.52013 12.2607 1.28589 11.1232 1.28589 9.9526C1.28589 8.78199 1.52013 7.64455 1.97905 6.57346C2.42362 5.53554 3.05941 4.60663 3.86729 3.80094C4.67517 3 5.6169 2.36966 6.6638 1.92891C7.74416 1.47393 8.89145 1.2417 10.0722 1.2417H26.8991ZM26.8991 0.47393H10.0722C4.8138 0.47393 0.511475 4.73933 0.511475 9.9526C0.511475 15.1659 4.8138 19.4313 10.0722 19.4313H26.8991C32.1575 19.4313 36.4598 15.1659 36.4598 9.9526C36.4598 4.73933 32.1575 0.47393 26.8991 0.47393Z" fill="#3C4043"/>
<path d="M17.6539 10.6256V13.4929H16.7361V6.41232H19.1693C19.786 6.41232 20.3118 6.61612 20.742 7.0237C21.1818 7.43128 21.4017 7.92891 21.4017 8.51659C21.4017 9.11849 21.1818 9.61611 20.742 10.019C20.3166 10.4218 19.7907 10.6209 19.1693 10.6209H17.6539V10.6256ZM17.6539 7.28436V9.75356H19.1884C19.5517 9.75356 19.8577 9.63033 20.0967 9.38863C20.3405 9.14692 20.4648 8.85308 20.4648 8.52133C20.4648 8.19431 20.3405 7.90522 20.0967 7.66351C19.8577 7.41232 19.5565 7.2891 19.1884 7.2891H17.6539V7.28436Z" fill="#3C4043"/>
<path d="M23.8015 8.48815C24.4803 8.48815 25.0157 8.66825 25.4077 9.02844C25.7997 9.38863 25.9957 9.88152 25.9957 10.5071V13.4929H25.1209V12.8199H25.0826C24.705 13.3744 24.1982 13.6493 23.5672 13.6493C23.0271 13.6493 22.5777 13.4929 22.2144 13.1754C21.8511 12.8578 21.6694 12.4645 21.6694 11.9905C21.6694 11.4882 21.8606 11.09 22.2431 10.7962C22.6255 10.4976 23.137 10.3507 23.7728 10.3507C24.3178 10.3507 24.7671 10.4502 25.1161 10.6493V10.4408C25.1161 10.1232 24.9918 9.85782 24.7384 9.63507C24.4851 9.41232 24.1887 9.30332 23.8493 9.30332C23.3378 9.30332 22.9314 9.51659 22.6351 9.94787L21.8272 9.4455C22.2718 8.80569 22.9315 8.48815 23.8015 8.48815ZM22.6159 12.0047C22.6159 12.2417 22.7163 12.4408 22.9219 12.5972C23.1227 12.7536 23.3617 12.8341 23.6342 12.8341C24.0214 12.8341 24.3656 12.6919 24.6667 12.4076C24.9679 12.1232 25.1209 11.7915 25.1209 11.4076C24.834 11.1848 24.4373 11.0711 23.9258 11.0711C23.5529 11.0711 23.2422 11.1611 22.9936 11.3365C22.7402 11.5213 22.6159 11.7441 22.6159 12.0047Z" fill="#3C4043"/>
<path d="M30.9864 8.64455L27.9269 15.6209H26.9804L28.1181 13.1801L26.1008 8.64455H27.0999L28.5532 12.1232H28.5723L29.9873 8.64455H30.9864Z" fill="#3C4043"/>
<path d="M14.0033 10.0474C14.0033 9.75071 13.9765 9.46683 13.9268 9.19384H10.0796V10.7578L12.2953 10.7583C12.2054 11.2787 11.9162 11.7223 11.4731 12.018V13.0327H12.792C13.5621 12.3261 14.0033 11.2815 14.0033 10.0474Z" fill="#4285F4"/>
<path d="M11.4735 12.018C11.1064 12.2635 10.6336 12.4071 10.0805 12.4071C9.01209 12.4071 8.10573 11.6934 7.78114 10.7313H6.42065V11.7777C7.09469 13.1038 8.48003 14.0137 10.0805 14.0137C11.1867 14.0137 12.116 13.6531 12.7924 13.0322L11.4735 12.018Z" fill="#34A853"/>
<path d="M7.65297 9.95497C7.65297 9.68483 7.69839 9.4237 7.78109 9.1782V8.13175H6.4206C6.1419 8.68009 5.98511 9.29905 5.98511 9.95497C5.98511 10.6109 6.14238 11.2299 6.4206 11.7782L7.78109 10.7318C7.69839 10.4863 7.65297 10.2251 7.65297 9.95497Z" fill="#FABB05"/>
<path d="M10.0805 7.50237C10.6843 7.50237 11.2249 7.70853 11.6518 8.11138L12.8206 6.95356C12.1107 6.29811 11.1852 5.89574 10.0805 5.89574C8.48051 5.89574 7.09469 6.80569 6.42065 8.13176L7.78114 9.1782C8.10573 8.21612 9.01209 7.50237 10.0805 7.50237Z" fill="#E94235"/>
</g>
<defs>
<clipPath id="clip0_1335_9988">
<rect width="37" height="20" fill="white"/>
</clipPath>
</defs>
</svg>
